<?xml version="1.0" encoding="UTF-8" standalone="no"?>
<!-- Created with Inkscape (http://www.inkscape.org/) -->

<svg
   xmlns:dc="http://purl.org/dc/elements/1.1/"
   xmlns:cc="http://creativecommons.org/ns#"
   xmlns:rdf="http://www.w3.org/1999/02/22-rdf-syntax-ns#"
   xmlns:svg="http://www.w3.org/2000/svg"
   xmlns="http://www.w3.org/2000/svg"
   xmlns:sodipodi="http://sodipodi.sourceforge.net/DTD/sodipodi-0.dtd"
   xmlns:inkscape="http://www.inkscape.org/namespaces/inkscape"
   width="132"
   height="35"
   viewBox="0 0 34.924999 9.2604169"
   version="1.1"
   id="svg2202"
   inkscape:version="0.92.4 (f8dce91, 2019-08-02)"
   sodipodi:docname="logo-xrp-03.svg">
  <defs
     id="defs2196" />
  <sodipodi:namedview
     id="base"
     pagecolor="#ffffff"
     bordercolor="#666666"
     borderopacity="1.0"
     inkscape:pageopacity="0.0"
     inkscape:pageshadow="2"
     inkscape:zoom="5.6196442"
     inkscape:cx="61.211255"
     inkscape:cy="17.283139"
     inkscape:document-units="mm"
     inkscape:current-layer="layer1"
     showgrid="false"
     units="px"
     inkscape:window-width="1680"
     inkscape:window-height="999"
     inkscape:window-x="0"
     inkscape:window-y="25"
     inkscape:window-maximized="1" />
  <metadata
     id="metadata2199">
    <rdf:RDF>
      <cc:Work
         rdf:about="">
        <dc:format>image/svg+xml</dc:format>
        <dc:type
           rdf:resource="http://purl.org/dc/dcmitype/StillImage" />
        <dc:title></dc:title>
      </cc:Work>
    </rdf:RDF>
  </metadata>
  <g
     inkscape:label="Camada 1"
     inkscape:groupmode="layer"
     id="layer1"
     transform="translate(0,-287.73957)">
    <g
       aria-label="XRP"
       transform="matrix(0.19430773,0,0,0.15980537,0.5629339,269.05914)"
       style="font-style:normal;font-variant:normal;font-weight:bold;font-stretch:normal;font-size:46.84249115px;line-height:1.25;font-family:sans-serif;-inkscape-font-specification:'sans-serif Bold';letter-spacing:0px;word-spacing:0px;fill:#abcffc;fill-opacity:1;stroke:#abcffc;stroke-width:1.17106235;stroke-opacity:1"
       id="text3779">
      <path
         d="m 87.029536,135.74061 11.847856,17.4287 H 89.705596 L 81.72316,141.50443 73.809341,153.16931 H 64.5918 l 11.847856,-17.4287 -11.39041,-16.71966 h 9.194668 l 7.479246,11.00158 7.456373,-11.00158 h 9.240413 z"
         style="fill:#abcffc;fill-opacity:1;stroke:#abcffc;stroke-width:1.17106235;stroke-opacity:1"
         id="path3820"
         inkscape:connector-curvature="0" />
      <path
         d="m 110.93111,134.16242 q 2.76755,0 3.95691,-1.02925 1.21223,-1.02926 1.21223,-3.3851 0,-2.33298 -1.21223,-3.33936 -1.18936,-1.00638 -3.95691,-1.00638 h -3.70532 v 8.76009 z m -3.70532,6.08404 v 12.92285 h -8.805844 v -34.14836 h 13.448924 q 6.74733,0 9.88084,2.26436 3.15638,2.26436 3.15638,7.15903 0,3.38511 -1.64681,5.55798 -1.62393,2.17287 -4.91755,3.20212 1.80692,0.4117 3.225,1.87553 1.44096,1.44095 2.90478,4.39148 l 4.78032,9.69786 h -9.37765 l -4.16276,-8.48563 q -1.25798,-2.56169 -2.5617,-3.49946 -1.28085,-0.93776 -3.43085,-0.93776 z"
         style="fill:#abcffc;fill-opacity:1;stroke:#abcffc;stroke-width:1.17106235;stroke-opacity:1"
         id="path3822"
         inkscape:connector-curvature="0" />
      <path
         d="m 129.25183,119.02095 h 14.6154 q 6.51861,0 9.9952,2.90479 3.49947,2.88191 3.49947,8.23403 0,5.37499 -3.49947,8.27977 -3.47659,2.88191 -9.9952,2.88191 h -5.80956 v 11.84786 h -8.80584 z m 8.80584,6.38138 v 9.53775 h 4.8718 q 2.5617,0 3.95691,-1.2351 1.39521,-1.25798 1.39521,-3.54521 0,-2.28723 -1.39521,-3.52234 -1.39521,-1.2351 -3.95691,-1.2351 z"
         style="fill:#abcffc;fill-opacity:1;stroke:#abcffc;stroke-width:1.17106235;stroke-opacity:1"
         id="path3824"
         inkscape:connector-curvature="0" />
    </g>
    <text
       xml:space="preserve"
       style="font-style:normal;font-variant:normal;font-weight:bold;font-stretch:normal;font-size:2.93296432px;line-height:1.25;font-family:sans-serif;-inkscape-font-specification:'sans-serif Bold';letter-spacing:0px;word-spacing:0px;fill:#727276;fill-opacity:1;stroke:none;stroke-width:0.27496541"
       x="16.417757"
       y="234.15901"
       id="text3787"
       transform="scale(0.78901471,1.2674035)"><tspan
         sodipodi:role="line"
         id="tspan3785"
         x="16.417757"
         y="234.15901"
         style="stroke-width:0.27496541">CONSULTORIA</tspan></text>
    <g
       transform="matrix(0.08321981,0,0,0.0829428,-0.2206886,286.98571)"
       id="g4700"
       inkscape:export-xdpi="96"
       inkscape:export-ydpi="96"
       style="fill:#106be0;fill-opacity:1;stroke:#106be0;stroke-opacity:1">
      <path
         inkscape:connector-curvature="0"
         id="path3880"
         d="m 51.788081,12.252006 h 5.892057 l 48.687002,49.617323 48.9971,-48.997107 h 1.24044 l 0.31011,8.372924 -46.20614,45.585916 46.20614,46.206128 v 4.96174 l -4.03141,0.3101 -46.20613,-46.826344 -47.136462,46.826344 -6.512274,0.62022 -1.240433,-2.17076 L 101.71551,66.831062 51.167865,15.973305 Z"
         style="fill:#106be0;fill-opacity:1;stroke:#106be0;stroke-width:1px;stroke-linecap:butt;stroke-linejoin:miter;stroke-opacity:1" />
      <path
         inkscape:connector-curvature="0"
         id="path3882"
         d="m 147.76659,35.044964 v 61.246383 l 6.82238,6.822383 0.31011,-74.58104 z"
         style="fill:#106be0;fill-opacity:1;stroke:#106be0;stroke-width:1px;stroke-linecap:butt;stroke-linejoin:miter;stroke-opacity:1" />
      <path
         inkscape:connector-curvature="0"
         id="path3884"
         d="m 70.394578,17.368792 c 67.913712,0.310109 67.913712,0.310109 67.913712,0.310109 l -5.58195,6.667327 -56.904868,-0.310108 z"
         style="fill:#106be0;fill-opacity:1;stroke:#106be0;stroke-width:1px;stroke-linecap:butt;stroke-linejoin:miter;stroke-opacity:1" />
      <path
         inkscape:connector-curvature="0"
         id="path3886"
         d="m 57.059922,31.943881 6.977436,6.512274 -0.155054,54.579055 -6.202166,5.892058 z"
         style="fill:#106be0;fill-opacity:1;stroke:#106be0;stroke-width:1px;stroke-linecap:butt;stroke-linejoin:miter;stroke-opacity:1" />
      <path
         inkscape:connector-curvature="0"
         id="path3888"
         d="m 74.581039,109.00579 59.540791,-0.15506 6.97743,7.28755 -72.87544,-0.46517 z"
         style="fill:#106be0;fill-opacity:1;stroke:#106be0;stroke-width:1px;stroke-linecap:butt;stroke-linejoin:miter;stroke-opacity:1" />
    </g>
  </g>
</svg>
